<svg width="32" height="32" viewBox="0 0 32 32" fill="none" xmlns="http://www.w3.org/2000/svg">
<path fill-rule="evenodd" clip-rule="evenodd" d="M30.4445 16C30.4445 18.5544 29.9124 20.969 28.9661 23.1111H17.1111C19.3002 19.7584 21.5556 15.6984 21.5556 11.5556C21.5556 6.22432 17.9453 1.73631 13.0362 0.403015C14.0605 0.139299 15.1269 0 16.2222 0C24.077 0 30.4445 7.16345 30.4445 16ZM18 11.5556C18 7.13728 14.4183 3.55556 10 3.55556C4.08831 3.55556 2 11.1174 2 16C2 24.8366 8.36751 32 16.2222 32C20.4344 32 24.2188 29.94 26.823 26.6667H10C10.3127 26.2679 10.6402 25.857 10.9766 25.4349C14.1028 21.5122 18 16.622 18 11.5556Z" fill="#7859CF"/>
</svg>
